<svg xmlns="http://www.w3.org/2000/svg" width="16" height="16" viewBox="0 0 16 16">
    <path fill="#0087E8" d="M16 1.641v7.606c0 1.88-1.46 3.517-3.29 3.47-2.097-.054-3.71-2.184-2.923-4.464.435-1.257 1.651-2.079 2.95-2.1.62-.008.844.153 1.666.44v-2.49a.81.81 0 0 0-.799-.82H7.215a.81.81 0 0 0-.799.82v8.424c0 1.89-1.472 3.531-3.31 3.471-1.76-.057-3.175-1.576-3.103-3.414.069-1.771 1.589-3.11 3.315-3.151.815-.02.964.108 1.501.442V1.64C4.82.734 5.535 0 6.416 0h7.987C15.285 0 16 .734 16 1.641"/>
</svg>
