<?xml version="1.0" encoding="UTF-8"?>
<svg width="15px" height="16px" viewBox="0 0 15 16" version="1.1" xmlns="http://www.w3.org/2000/svg" xmlns:xlink="http://www.w3.org/1999/xlink">
    <!-- Generator: Sketch 53.1 (72631) - https://sketchapp.com -->
    <title>twitch [#182]</title>
    <desc>Created with Sketch.</desc>
    <g id="Working" stroke="none" stroke-width="1" fill="none" fill-rule="evenodd">
        <g id="Full-Cam" transform="translate(-335.000000, -1035.000000)" fill="#0087E8">
            <g id="Group-4" transform="translate(319.000000, 1024.000000)">
                <g id="Group" transform="translate(16.000000, 8.000000)">
                    <path d="M9.47368421,11 L11.0526316,11 L11.0526316,7 L9.47368421,7 L9.47368421,11 Z M5.52631579,11 L7.10526316,11 L7.10526316,7 L5.52631579,7 L5.52631579,11 Z M13.4210526,12.0456 L13.4210526,4.6 L2.36842105,4.6 L2.36842105,14.2 L5.52631579,14.2 L5.52631579,16.5624 L7.54736842,14.2 L11.3210526,14.2 L13.4210526,12.0456 Z M10.9792105,16.6 L7.88921053,16.6 L5.83184211,19 L3.94736842,19 L3.94736842,16.6 L0,16.6 L0,5.784 L1.02631579,3 L15,3 L15,12.7384 L10.9792105,16.6 Z" id="twitch-[#182]"></path>
                </g>
            </g>
        </g>
    </g>
</svg>